<svg width="468" height="44" viewBox="0 0 468 44" fill="none" xmlns="http://www.w3.org/2000/svg">
<path d="M42.44 43V45H43.7109L44.2507 43.8494L42.44 43ZM21.328 43L19.543 43.9021L20.0979 45H21.328V43ZM0.272 1.336V-0.664001H-2.97965L-1.513 2.2381L0.272 1.336ZM18.304 1.336L20.1059 0.468055L19.5605 -0.664001H18.304V1.336ZM32.304 30.4L30.5021 31.2679L32.36 35.1249L34.1259 31.225L32.304 30.4ZM45.464 1.336V-0.664001H44.1741L43.6421 0.511039L45.464 1.336ZM61.984 1.336L63.7947 2.18537L65.1313 -0.664001H61.984V1.336ZM42.44 41H21.328V45H42.44V41ZM23.113 42.0979L2.057 0.433903L-1.513 2.2381L19.543 43.9021L23.113 42.0979ZM0.272 3.336H18.304V-0.664001H0.272V3.336ZM16.5021 2.20394L30.5021 31.2679L34.1059 29.5321L20.1059 0.468055L16.5021 2.20394ZM34.1259 31.225L47.2859 2.16096L43.6421 0.511039L30.4821 29.575L34.1259 31.225ZM45.464 3.336H61.984V-0.664001H45.464V3.336ZM60.1733 0.486632L40.6293 42.1506L44.2507 43.8494L63.7947 2.18537L60.1733 0.486632ZM90.5186 25.864V27.864H93.7209L92.3158 24.9865L90.5186 25.864ZM83.5186 11.528L85.3158 10.6505L83.4967 6.92499L81.7132 10.6676L83.5186 11.528ZM76.6866 25.864L74.8812 25.0036L73.518 27.864H76.6866V25.864ZM98.8626 43L97.0619 43.8703L97.6079 45H98.8626V43ZM95.6146 36.28L97.4153 35.4097L96.8693 34.28H95.6146V36.28ZM71.8146 36.28V34.28H70.5505L70.0081 35.4219L71.8146 36.28ZM68.6226 43V45H69.8868L70.4292 43.8581L68.6226 43ZM52.4946 43L50.7019 42.1133L49.2741 45H52.4946V43ZM73.1026 1.336V-0.664001H71.8606L71.3099 0.44929L73.1026 1.336ZM94.4946 1.336L96.267 0.409321L95.7058 -0.664001H94.4946V1.336ZM116.279 43V45H119.581L118.051 42.0733L116.279 43ZM92.3158 24.9865L85.3158 10.6505L81.7214 12.4055L88.7214 26.7415L92.3158 24.9865ZM81.7132 10.6676L74.8812 25.0036L78.4921 26.7244L85.3241 12.3884L81.7132 10.6676ZM76.6866 27.864H90.5186V23.864H76.6866V27.864ZM100.663 42.1297L97.4153 35.4097L93.8139 37.1503L97.0619 43.8703L100.663 42.1297ZM95.6146 34.28H71.8146V38.28H95.6146V34.28ZM70.0081 35.4219L66.8161 42.1419L70.4292 43.8581L73.6212 37.1381L70.0081 35.4219ZM68.6226 41H52.4946V45H68.6226V41ZM54.2873 43.8867L74.8953 2.22271L71.3099 0.44929L50.7019 42.1133L54.2873 43.8867ZM73.1026 3.336H94.4946V-0.664001H73.1026V3.336ZM92.7223 2.26268L114.506 43.9267L118.051 42.0733L96.267 0.409321L92.7223 2.26268ZM116.279 41H98.8626V45H116.279V41ZM118.094 1.336V-0.664001H116.094V1.336H118.094ZM133.998 1.336H135.998V-0.664001H133.998V1.336ZM133.998 31.072H131.998V33.072H133.998V31.072ZM162.894 31.072H164.894V29.072H162.894V31.072ZM162.894 43V45H164.894V43H162.894ZM118.094 43H116.094V45H118.094V43ZM118.094 3.336H133.998V-0.664001H118.094V3.336ZM131.998 1.336V31.072H135.998V1.336H131.998ZM133.998 33.072H162.894V29.072H133.998V33.072ZM160.894 31.072V43H164.894V31.072H160.894ZM162.894 41H118.094V45H162.894V41ZM120.094 43V1.336H116.094V43H120.094ZM207.28 1.336L206.94 3.30678L206.953 3.30915L206.967 3.31133L207.28 1.336ZM214.952 3.296L214.21 5.15295L214.23 5.16102L214.25 5.16866L214.952 3.296ZM220.384 6.264L219.154 7.84063L219.175 7.85718L219.197 7.87315L220.384 6.264ZM224.08 9.792L225.68 8.592V8.59199L224.08 9.792ZM226.208 13.712L224.332 14.4034L224.34 14.425L224.348 14.4463L226.208 13.712ZM227.272 17.576L225.289 17.8319L225.293 17.8633L225.298 17.8945L227.272 17.576ZM227.272 26.536L225.298 26.2175L225.293 26.2487L225.289 26.2801L227.272 26.536ZM226.208 30.456L224.342 29.738L224.337 29.7513L224.332 29.7646L226.208 30.456ZM224.08 34.432L222.463 33.2556L222.456 33.2647L224.08 34.432ZM220.44 38.016L219.228 36.4251L220.44 38.016ZM215.008 41.04L215.751 42.897L215.008 41.04ZM207.336 43L207.023 41.0247L207.009 41.0268L206.996 41.0292L207.336 43ZM184.488 43L184.825 41.0285L184.815 41.0269L184.805 41.0253L184.488 43ZM176.816 41.04L176.074 42.897L176.085 42.9015L176.816 41.04ZM171.384 38.016L170.172 39.6069L171.384 38.016ZM167.688 34.432L166.048 35.5756L166.067 35.6041L166.088 35.632L167.688 34.432ZM165.56 30.456L163.678 31.1317L163.689 31.1612L163.7 31.1903L165.56 30.456ZM164.496 26.536L162.513 26.7919L162.517 26.8233L162.522 26.8545L164.496 26.536ZM164.496 17.576L162.522 17.2575L162.517 17.2887L162.513 17.3201L164.496 17.576ZM165.56 13.712L163.7 12.9777L163.692 12.999L163.684 13.0206L165.56 13.712ZM167.688 9.792L166.088 8.592L166.076 8.60824L166.064 8.62473L167.688 9.792ZM171.384 6.264L172.572 7.87315L172.584 7.8641L172.596 7.85486L171.384 6.264ZM176.816 3.296L177.53 5.16443L177.539 5.16101L177.548 5.1575L176.816 3.296ZM184.488 1.336L184.805 3.31073L184.815 3.30915L184.825 3.30747L184.488 1.336ZM210.416 18.192L208.568 18.9567L208.573 18.9683L208.578 18.9798L210.416 18.192ZM208.12 15.056L206.732 16.4957L206.745 16.5078L206.758 16.5198L208.12 15.056ZM203.416 12.648L203.966 10.7249L203.416 12.648ZM188.296 12.648L187.747 10.7249L188.296 12.648ZM183.592 15.056L184.981 16.4957V16.4957L183.592 15.056ZM181.352 18.192L179.504 17.4273L179.497 17.4439L179.491 17.4607L181.352 18.192ZM181.408 25.808L179.551 26.5508L179.556 26.5618L179.56 26.5727L181.408 25.808ZM183.648 29.056L182.21 30.4452L182.222 30.4578L182.234 30.4702L183.648 29.056ZM188.352 31.576L187.771 33.4898L187.781 33.4926L188.352 31.576ZM203.416 31.632L203.966 33.555L203.977 33.5519L203.988 33.5486L203.416 31.632ZM208.176 29.112L209.591 30.5262V30.5262L208.176 29.112ZM210.416 25.92L212.264 26.6847L212.269 26.6738L212.273 26.6628L210.416 25.92ZM194.68 2.552H197.2V-1.448H194.68V2.552ZM197.2 2.552C200.804 2.552 204.048 2.80701 206.94 3.30678L207.621 -0.634781C204.465 -1.18035 200.988 -1.448 197.2 -1.448V2.552ZM206.967 3.31133C209.935 3.78186 212.337 4.40408 214.21 5.15295L215.695 1.43904C213.461 0.545256 210.748 -0.139198 207.594 -0.639331L206.967 3.31133ZM214.25 5.16866C216.179 5.89184 217.805 6.78799 219.154 7.84063L221.615 4.68737C219.902 3.35067 217.907 2.26816 215.655 1.42334L214.25 5.16866ZM219.197 7.87315C220.653 8.94803 221.73 9.99215 222.48 10.992L225.68 8.59199C224.638 7.20251 223.252 5.89464 221.572 4.65485L219.197 7.87315ZM222.48 10.992C223.259 12.0295 223.875 13.1645 224.332 14.4034L228.085 13.0206C227.496 11.4222 226.694 9.94382 225.68 8.592L222.48 10.992ZM224.348 14.4463C224.865 15.7554 225.166 16.8797 225.289 17.8319L229.256 17.3201C229.08 15.9576 228.672 14.5059 228.069 12.9777L224.348 14.4463ZM225.298 17.8945C225.466 18.9382 225.552 20.0446 225.552 21.216H229.552C229.552 19.8487 229.452 18.5284 229.247 17.2575L225.298 17.8945ZM225.552 21.216V22.896H229.552V21.216H225.552ZM225.552 22.896C225.552 24.0674 225.466 25.1737 225.298 26.2175L229.247 26.8545C229.452 25.5836 229.552 24.2633 229.552 22.896H225.552ZM225.289 26.2801C225.165 27.2365 224.862 28.3844 224.342 29.738L228.075 31.174C228.674 29.6156 229.081 28.1501 229.256 26.7919L225.289 26.2801ZM224.332 29.7646C223.873 31.0091 223.251 32.1715 222.463 33.2557L225.698 35.6083C226.701 34.2285 227.498 32.7402 228.085 31.1474L224.332 29.7646ZM222.456 33.2647C221.745 34.2545 220.689 35.3125 219.228 36.4251L221.652 39.6069C223.328 38.3302 224.699 36.9988 225.704 35.5993L222.456 33.2647ZM219.228 36.4251C217.82 37.4979 216.171 38.4208 214.266 39.183L215.751 42.897C217.952 42.0166 219.925 40.9234 221.652 39.6069L219.228 36.4251ZM214.266 39.183C212.393 39.9319 209.991 40.5541 207.023 41.0247L207.65 44.9753C210.804 44.4752 213.517 43.7907 215.751 42.897L214.266 39.183ZM206.996 41.0292C204.105 41.5288 200.843 41.784 197.2 41.784V45.784C201.024 45.784 204.519 45.5165 207.677 44.9708L206.996 41.0292ZM197.2 41.784H194.68V45.784H197.2V41.784ZM194.68 41.784C191.038 41.784 187.756 41.5289 184.825 41.0285L184.152 44.9715C187.344 45.5165 190.856 45.784 194.68 45.784V41.784ZM184.805 41.0253C181.876 40.5551 179.466 39.9323 177.548 39.1785L176.085 42.9015C178.348 43.7904 181.053 44.4742 184.171 44.9747L184.805 41.0253ZM177.559 39.183C175.653 38.4208 174.005 37.4979 172.596 36.4251L170.172 39.6069C171.9 40.9234 173.873 42.0166 176.074 42.897L177.559 39.183ZM172.596 36.4251C171.131 35.3088 170.045 34.2407 169.288 33.232L166.088 35.632C167.124 37.0127 168.501 38.3339 170.172 39.6069L172.596 36.4251ZM169.329 33.2884C168.561 32.1858 167.925 30.9981 167.421 29.7217L163.7 31.1903C164.316 32.7512 165.099 34.2142 166.048 35.5756L169.329 33.2884ZM167.443 29.7803C166.949 28.4059 166.633 27.2218 166.471 26.2175L162.522 26.8545C162.733 28.1649 163.126 29.5941 163.678 31.1317L167.443 29.7803ZM166.48 26.2801C166.342 25.2146 166.272 24.0871 166.272 22.896H162.272C162.272 24.2435 162.352 25.5427 162.513 26.7919L166.48 26.2801ZM166.272 22.896V21.216H162.272V22.896H166.272ZM166.272 21.216C166.272 20.0249 166.342 18.8974 166.48 17.8319L162.513 17.3201C162.352 18.5693 162.272 19.8685 162.272 21.216H166.272ZM166.471 17.8945C166.632 16.8947 166.947 15.7339 167.437 14.4034L163.684 13.0206C163.129 14.5274 162.734 15.9427 162.522 17.2575L166.471 17.8945ZM167.421 14.4463C167.922 13.1755 168.554 12.0151 169.312 10.9593L166.064 8.62473C165.106 9.95824 164.318 11.4111 163.7 12.9777L167.421 14.4463ZM169.288 10.992C170.038 9.99215 171.116 8.94803 172.572 7.87315L170.197 4.65485C168.517 5.89464 167.13 7.20251 166.088 8.592L169.288 10.992ZM172.596 7.85486C173.996 6.78853 175.635 5.88796 177.53 5.16443L176.103 1.42756C173.891 2.27203 171.909 3.35013 170.172 4.67314L172.596 7.85486ZM177.548 5.1575C179.466 4.40372 181.876 3.78091 184.805 3.31073L184.171 -0.63873C181.053 -0.138243 178.348 0.545616 176.085 1.43449L177.548 5.1575ZM184.825 3.30747C187.756 2.80713 191.038 2.552 194.68 2.552V-1.448C190.856 -1.448 187.344 -1.18047 184.152 -0.635474L184.825 3.30747ZM213.088 22.392V21.608H209.088V22.392H213.088ZM213.088 21.608C213.088 20.1279 212.818 18.7186 212.255 17.4042L208.578 18.9798C208.911 19.7561 209.088 20.6241 209.088 21.608H213.088ZM212.264 17.4273C211.682 16.0195 210.723 14.746 209.483 13.5922L206.758 16.5198C207.684 17.3819 208.255 18.1992 208.568 18.9567L212.264 17.4273ZM209.509 13.6163C208.139 12.2957 206.227 11.3711 203.966 10.7249L202.867 14.571C204.787 15.1196 206.011 15.8003 206.732 16.4957L209.509 13.6163ZM203.966 10.7249C201.648 10.0626 198.952 9.752 195.912 9.752V13.752C198.697 13.752 201.004 14.0387 202.867 14.571L203.966 10.7249ZM195.912 9.752C192.804 9.752 190.069 10.0615 187.747 10.7249L188.846 14.571C190.705 14.0398 193.048 13.752 195.912 13.752V9.752ZM187.747 10.7249C185.485 11.3711 183.574 12.2957 182.204 13.6163L184.981 16.4957C185.702 15.8003 186.926 15.1196 188.846 14.571L187.747 10.7249ZM182.204 13.6163C181.007 14.7709 180.08 16.0373 179.504 17.4273L183.2 18.9567C183.521 18.1814 184.087 17.3571 184.981 16.4957L182.204 13.6163ZM179.491 17.4607C178.98 18.7606 178.736 20.15 178.736 21.608H182.736C182.736 20.602 182.903 19.7141 183.214 18.9233L179.491 17.4607ZM178.736 21.608V22.28H182.736V21.608H178.736ZM178.736 22.28C178.736 23.7609 179.007 25.1894 179.551 26.5508L183.265 25.0652C182.914 24.1866 182.736 23.2631 182.736 22.28H178.736ZM179.56 26.5727C180.127 27.943 181.037 29.2309 182.21 30.4452L185.087 27.6668C184.169 26.7157 183.585 25.8383 183.256 25.0433L179.56 26.5727ZM182.234 30.4702C183.597 31.8327 185.505 32.8018 187.771 33.4898L188.933 29.6622C187.018 29.0808 185.791 28.3699 185.063 27.6418L182.234 30.4702ZM187.781 33.4926C190.142 34.1967 192.863 34.528 195.912 34.528V30.528C193.137 30.528 190.819 30.2246 188.924 29.6594L187.781 33.4926ZM195.912 34.528C198.952 34.528 201.648 34.2174 203.966 33.555L202.867 29.709C201.004 30.2413 198.697 30.528 195.912 30.528V34.528ZM203.988 33.5486C206.287 32.8629 208.222 31.8951 209.591 30.5262L206.762 27.6978C206.04 28.4196 204.802 29.1318 202.845 29.7154L203.988 33.5486ZM209.591 30.5262C210.775 29.3418 211.693 28.0648 212.264 26.6847L208.568 25.1553C208.243 25.9405 207.668 26.7915 206.762 27.6978L209.591 30.5262ZM212.273 26.6628C212.818 25.3014 213.088 23.8729 213.088 22.392H209.088C209.088 23.3751 208.911 24.2986 208.559 25.1772L212.273 26.6628ZM247.42 11.472V9.472H245.42V11.472H247.42ZM247.42 18.64H245.42V20.64H247.42V18.64ZM247.42 28.72V26.72H245.42V28.72H247.42ZM247.42 43V45H249.42V43H247.42ZM231.516 43H229.516V45H231.516V43ZM231.516 1.336V-0.664001H229.516V1.336H231.516ZM283.82 19.312L282.61 17.7197L282.594 17.7316L282.579 17.7439L283.82 19.312ZM281.132 20.992L280.299 19.1739L280.284 19.1807L280.269 19.1877L281.132 20.992ZM278.5 21.944L278.015 20.0037L278.06 23.8951L278.5 21.944ZM284.772 25.416L283.279 26.7467L283.286 26.7549L283.294 26.763L284.772 25.416ZM287.852 42.72H289.852V42.2158L289.613 41.7718L287.852 42.72ZM287.852 43V45H289.852V43H287.852ZM271.612 43L270.126 44.3379L270.721 45H271.612V43ZM269.148 30.512L267.777 31.9684L267.799 31.9891L267.822 32.0092L269.148 30.512ZM245.42 11.472V18.64H249.42V11.472H245.42ZM247.42 20.64H265.676V16.64H247.42V20.64ZM265.676 20.64C267.471 20.64 269.182 20.3163 270.482 19.3485C271.893 18.2982 272.492 16.7445 272.492 15.056H268.492C268.492 15.7568 268.288 15.9952 268.094 16.1395C267.789 16.3664 267.092 16.64 265.676 16.64V20.64ZM272.492 15.056V15H268.492V15.056H272.492ZM272.492 15C272.492 13.3181 271.885 11.7768 270.47 10.7406C269.172 9.78936 267.467 9.472 265.676 9.472V13.472C267.096 13.472 267.799 13.7426 268.106 13.9674C268.297 14.1072 268.492 14.3299 268.492 15H272.492ZM265.676 9.472H247.42V13.472H265.676V9.472ZM245.42 28.72V43H249.42V28.72H245.42ZM247.42 41H231.516V45H247.42V41ZM233.516 43V1.336H229.516V43H233.516ZM231.516 3.336H269.372V-0.664001H231.516V3.336ZM269.372 3.336C275.076 3.336 279.019 4.2179 281.476 5.71724C283.773 7.11862 284.9 9.12837 284.9 12.032H288.9C288.9 7.80496 287.106 4.46671 283.56 2.30276C280.174 0.236768 275.353 -0.664001 269.372 -0.664001V3.336ZM284.9 12.032V12.648H288.9V12.032H284.9ZM284.9 12.648C284.9 13.7965 284.675 14.7822 284.26 15.6409L287.86 17.3831C288.565 15.9271 288.9 14.3368 288.9 12.648H284.9ZM284.26 15.6409C283.823 16.5426 283.269 17.2188 282.61 17.7197L285.03 20.9043C286.238 19.9865 287.177 18.7961 287.86 17.3831L284.26 15.6409ZM282.579 17.7439C281.789 18.3692 281.028 18.8395 280.299 19.1739L281.965 22.8101C283.028 22.3232 284.059 21.6734 285.062 20.8801L282.579 17.7439ZM280.269 19.1877C279.528 19.5423 278.777 19.8132 278.015 20.0037L278.985 23.8843C280.015 23.6268 281.019 23.2631 281.995 22.7963L280.269 19.1877ZM278.06 23.8951C280.38 24.4177 282.074 25.3944 283.279 26.7467L286.265 24.0853C284.409 22.0029 281.922 20.665 278.94 19.9929L278.06 23.8951ZM283.294 26.763C284.439 28.0196 285.068 29.6611 285.068 31.856H289.068C289.068 28.8242 288.167 26.1724 286.251 24.069L283.294 26.763ZM285.068 31.856V38.016H289.068V31.856H285.068ZM285.068 38.016C285.068 40.251 285.322 42.2403 286.091 43.6682L289.613 41.7718C289.337 41.2583 289.068 40.1116 289.068 38.016H285.068ZM285.852 42.72V43H289.852V42.72H285.852ZM287.852 41H271.612V45H287.852V41ZM273.099 41.6621C273.242 41.821 273.225 41.9069 273.183 41.7243C273.144 41.5574 273.108 41.2671 273.108 40.816H269.108C269.108 41.4475 269.156 42.0626 269.285 42.6237C269.411 43.1691 269.647 43.8057 270.126 44.3379L273.099 41.6621ZM273.108 40.816V35.944H269.108V40.816H273.108ZM273.108 35.944C273.108 33.1506 272.363 30.6876 270.474 29.0148L267.822 32.0092C268.547 32.651 269.108 33.8094 269.108 35.944H273.108ZM270.519 29.0556C268.683 27.3282 265.87 26.72 262.652 26.72V30.72C265.557 30.72 267.074 31.3065 267.777 31.9684L270.519 29.0556ZM262.652 26.72H247.42V30.72H262.652V26.72ZM326.44 25.864V27.864H329.643L328.238 24.9865L326.44 25.864ZM319.44 11.528L321.238 10.6505L319.419 6.92499L317.635 10.6676L319.44 11.528ZM312.608 25.864L310.803 25.0036L309.44 27.864H312.608V25.864ZM334.785 43L332.984 43.8703L333.53 45H334.785V43ZM331.536 36.28L333.337 35.4097L332.791 34.28H331.536V36.28ZM307.737 36.28V34.28H306.472L305.93 35.4219L307.737 36.28ZM304.544 43V45H305.809L306.351 43.8581L304.544 43ZM288.417 43L286.624 42.1133L285.196 45H288.417V43ZM309.025 1.336V-0.664001H307.782L307.232 0.44929L309.025 1.336ZM330.417 1.336L332.189 0.409321L331.628 -0.664001H330.417V1.336ZM352.201 43V45H355.503L353.973 42.0733L352.201 43ZM328.238 24.9865L321.238 10.6505L317.643 12.4055L324.643 26.7415L328.238 24.9865ZM317.635 10.6676L310.803 25.0036L314.414 26.7244L321.246 12.3884L317.635 10.6676ZM312.608 27.864H326.44V23.864H312.608V27.864ZM336.585 42.1297L333.337 35.4097L329.736 37.1503L332.984 43.8703L336.585 42.1297ZM331.536 34.28H307.737V38.28H331.536V34.28ZM305.93 35.4219L302.738 42.1419L306.351 43.8581L309.543 37.1381L305.93 35.4219ZM304.544 41H288.417V45H304.544V41ZM290.209 43.8867L310.817 2.22271L307.232 0.44929L286.624 42.1133L290.209 43.8867ZM309.025 3.336H330.417V-0.664001H309.025V3.336ZM328.644 2.26268L350.428 43.9267L353.973 42.0733L332.189 0.409321L328.644 2.26268ZM352.201 41H334.785V45H352.201V41ZM354.016 1.336V-0.664001H352.016V1.336H354.016ZM371.824 1.336L373.223 -0.0930214L372.64 -0.664001H371.824V1.336ZM396.016 25.024L394.617 26.453L398.016 29.7815V25.024H396.016ZM396.016 1.336V-0.664001H394.016V1.336H396.016ZM411.808 1.336H413.808V-0.664001H411.808V1.336ZM411.808 43V45H413.808V43H411.808ZM395.904 43L394.513 44.4372L395.095 45H395.904V43ZM369.808 17.744L371.199 16.3068L367.808 13.0251V17.744H369.808ZM369.808 43V45H371.808V43H369.808ZM354.016 43H352.016V45H354.016V43ZM354.016 3.336H371.824V-0.664001H354.016V3.336ZM370.425 2.76502L394.617 26.453L397.415 23.595L373.223 -0.0930214L370.425 2.76502ZM398.016 25.024V1.336H394.016V25.024H398.016ZM396.016 3.336H411.808V-0.664001H396.016V3.336ZM409.808 1.336V43H413.808V1.336H409.808ZM411.808 41H395.904V45H411.808V41ZM397.295 41.5628L371.199 16.3068L368.417 19.1812L394.513 44.4372L397.295 41.5628ZM367.808 17.744V43H371.808V17.744H367.808ZM369.808 41H354.016V45H369.808V41ZM356.016 43V1.336H352.016V43H356.016ZM433.868 43H431.868V45H433.868V43ZM433.868 12.704H435.868V10.704H433.868V12.704ZM415.892 12.704H413.892V14.704H415.892V12.704ZM415.892 1.336V-0.664001H413.892V1.336H415.892ZM467.748 1.336H469.748V-0.664001H467.748V1.336ZM467.748 12.704V14.704H469.748V12.704H467.748ZM449.772 12.704V10.704H447.772V12.704H449.772ZM449.772 43V45H451.772V43H449.772ZM435.868 43V12.704H431.868V43H435.868ZM433.868 10.704H415.892V14.704H433.868V10.704ZM417.892 12.704V1.336H413.892V12.704H417.892ZM415.892 3.336H467.748V-0.664001H415.892V3.336ZM465.748 1.336V12.704H469.748V1.336H465.748ZM467.748 10.704H449.772V14.704H467.748V10.704ZM447.772 12.704V43H451.772V12.704H447.772ZM449.772 41H433.868V45H449.772V41Z" fill="white"/>
</svg>
